<?xml version="1.0"?>
<svg width="2048" height="2048" xmlns="http://www.w3.org/2000/svg" xmlns:svg="http://www.w3.org/2000/svg" xmlns:xlink="http://www.w3.org/1999/xlink" class="svg_dd790ee3">
 <g class="layer">
  <title>Layer 1</title>
  <path d="m1044,0q107.95,0 208.25,26.51t187.58,75.84t158.48,117.81t122.5,153.16t78.86,180.4t28.33,200.28q0,103.82 -27.56,200.28t-78.86,180.4t-122.5,152.42t-159.25,117.81t-187.58,75.84t-208.25,27.24q-107.95,0 -208.25,-26.51t-187.58,-75.84t-158.48,-117.81t-122.5,-153.16t-78.86,-179.66t-28.33,-201.02q0,-103.82 27.56,-200.28t78.86,-180.4t122.5,-152.42t159.25,-117.81t186.81,-75.84t209.02,-27.24zm619.39,471.25q-29.09,-59.64 -70.44,-111.92t-91.87,-96.46t-109.48,-77.31t-123.27,-55.22q27.56,36.82 49.77,78.05t39.05,84.68t29.86,89.1t21.44,89.1l254.95,0zm66.61,282.75q0,-97.93 -28.33,-188.5l-277.92,0q6.12,47.13 9.19,93.51t3.06,94.99q0,47.86 -3.06,94.25t-9.19,94.25l277.92,0q28.33,-90.57 28.33,-188.5zm-686,659.75q37.52,0 69.67,-19.88t60.48,-52.28t49,-72.9t39.05,-83.21t28.33,-81t17.61,-67.74l-528.28,0q6.12,28.72 17.61,67.74t28.33,81t38.28,82.47t49.77,73.63t59.72,52.28t70.44,19.88zm280.98,-471.25q6.12,-47.13 9.19,-93.51t3.83,-94.99q0,-47.86 -3.06,-94.25t-9.95,-94.25l-561.97,0q-6.12,47.13 -9.19,93.51t-3.83,94.99q0,47.86 3.06,94.25t9.95,94.25l561.97,0zm-966.98,-188.5q0,97.93 28.33,188.5l277.92,0q-6.12,-47.13 -9.19,-93.51t-3.06,-94.99q0,-47.86 3.06,-94.25t9.19,-94.25l-277.92,0q-28.33,90.57 -28.33,188.5zm686,-659.75q-37.52,0 -69.67,19.88t-60.48,52.28t-49,72.9t-39.05,83.21t-28.33,81t-17.61,67.74l528.28,0q-6.12,-28.72 -17.61,-67.74t-28.33,-81t-38.28,-82.47t-49.77,-73.63t-59.72,-52.28t-70.44,-19.88zm-224.33,36.08q-64.31,21.35 -123.27,55.22t-109.48,77.31t-91.87,95.72t-70.44,112.66l254.95,0q9.19,-44.18 21.44,-89.1t29.09,-88.36t39.81,-85.41t49.77,-78.05zm-395.06,906.42q29.09,59.64 70.44,111.92t91.87,96.46t109.48,77.31t123.27,55.22q-27.56,-36.82 -49.77,-78.05t-39.05,-84.68t-29.86,-89.1t-21.44,-89.1l-254.95,0zm843.72,340.92q64.31,-21.35 123.27,-55.22t109.48,-77.31t91.87,-95.72t70.44,-112.66l-254.95,0q-9.19,44.18 -21.44,89.1t-29.09,88.36t-39.81,85.41t-49.77,78.05z" fill="#007fff" id="svg_1"/>
  <use fill="#bfbfbf" id="svg_3" transform="rotate(-90.1479 1549.13 1009.13) matrix(0.511881 0 0 0.481672 -537.602 1463.91)" x="3052.61" xlink:href="#svg_2" y="-1968.15"/>
  <rect fill="#007fff" height="540" id="svg_5" transform="matrix(1 0 0 1 0 0)" width="2070" x="4" y="1504"/>
  <text fill="#ffffff" font-family="Times" font-size="24" font-weight="bold" id="svg_4" stroke-width="0" text-anchor="middle" transform="matrix(16.6534 0 0 17.5434 -663.247 -25364)" x="101.37" xml:space="preserve" y="1555.35">WikiViewer</text>
 </g>
 <defs>
  <symbol class="svg_dd790ee3" id="svg_2" viewBox="0 0 2048 2048" xmlns="http://www.w3.org/2000/svg">
   <path d="m1344,0q97,0 187,25t168,71t142,110t111,143t71,168t25,187q0,97 -25,187t-71,168t-110,142t-143,111t-168,71t-187,25q-125,0 -239,-42t-211,-121l-785,784q-19,19 -45,19t-45,-19t-19,-45q0,-26 19,-45l784,-785q-79,-96 -121,-210t-42,-240q0,-97 25,-187t71,-168t110,-142t143,-111t168,-71t187,-25zm0,1280q119,0 224,-45t183,-124t123,-183t46,-224q0,-119 -45,-224t-124,-183t-183,-123t-224,-46q-119,0 -224,45t-183,124t-123,183t-46,224q0,119 45,224t124,183t183,123t224,46z"/>
  </symbol>
 </defs>
</svg>